<?xml version="1.0" encoding="UTF-8" standalone="no"?>
<svg
   version="1.0"
   width="112.000000pt"
   height="128.000000pt"
   viewBox="0 0 112.000000 128.000000"
   preserveAspectRatio="xMidYMid meet"
   id="svg14"
   sodipodi:docname="jelly-fish.svg"
   inkscape:version="1.2 (dc2aedaf03, 2022-05-15)"
   xmlns:inkscape="http://www.inkscape.org/namespaces/inkscape"
   xmlns:sodipodi="http://sodipodi.sourceforge.net/DTD/sodipodi-0.dtd"
   xmlns="http://www.w3.org/2000/svg"
   xmlns:svg="http://www.w3.org/2000/svg">
  <defs
     id="defs18" />
  <sodipodi:namedview
     id="namedview16"
     pagecolor="#505050"
     bordercolor="#ffffff"
     borderopacity="1"
     inkscape:showpageshadow="0"
     inkscape:pageopacity="0"
     inkscape:pagecheckerboard="1"
     inkscape:deskcolor="#505050"
     inkscape:document-units="pt"
     showgrid="false"
     inkscape:zoom="6.0175781"
     inkscape:cx="74.697825"
     inkscape:cy="85.250243"
     inkscape:window-width="2560"
     inkscape:window-height="1373"
     inkscape:window-x="0"
     inkscape:window-y="38"
     inkscape:window-maximized="1"
     inkscape:current-layer="svg14" />
  <g
     transform="translate(0.000000,128.000000) scale(0.100000,-0.100000)"
     fill="#000000"
     stroke="none"
     id="g12">
    <path
       d="M457 1249 c-104 -24 -218 -114 -264 -207 -47 -96 -34 -241 24 -263 13 -5 177 -9 363 -9 l339 0 27 23 c23 20 27 33 31 94 12 163 -91 299 -265 353 -68 21 -186 25 -255 9z"
       id="path2" />
    <path
       d="M255 648 c-48 -99 -48 -161 0 -268 44 -98 45 -144 6 -225 -39 -81 -46 -109 -28 -123 16 -14 47 -6 47 12 0 6 15 40 33 76 28 57 32 74 32 145 -1 71 -4 87 -33 139 -42 76 -42 129 -3 212 47 99 47 104 12 104 -27 0 -33 -6 -66 -72z"
       id="path4" />
    <path
       d="M460 706 c0 -8 -16 -47 -35 -87 -28 -59 -35 -85 -35 -134 0 -49 7 -75 35 -134 19 -40 35 -78 35 -86 0 -19 25 -36 44 -29 25 10 19 49 -19 134 -20 44 -35 94 -35 115 0 21 15 71 35 115 44 98 45 120 5 120 -19 0 -30 -5 -30 -14z"
       id="path6" />
    <path
       d="M660 673 c0 -37 -9 -61 -42 -116 -58 -96 -63 -159 -19 -237 17 -30 41 -77 53 -103 17 -37 27 -47 43 -45 30 4 31 54 0 103 -41 67 -65 119 -65 145 0 26 25 81 61 138 26 40 41 104 33 137 -5 19 -13 25 -35 25 -28 0 -29 -2 -29 -47z"
       id="path8" />
    <path
       d="M795 698 c4 -13 23 -47 42 -76 61 -90 58 -125 -22 -257 -34 -55 -35 -148 -2 -206 12 -22 34 -62 48 -87 31 -57 62 -64 67 -17 2 21 -9 48 -38 92 -56 86 -55 131 2 226 67 111 64 178 -14 298 -26 40 -37 49 -60 49 -26 0 -29 -3 -23 -22z"
       id="path10" />
  </g>
  <path
     style="fill:#46edff;fill-opacity:0.64545578;stroke-width:0.16618"
     d="m 50.767932,67.704735 c -8.104645,-0.148017 -16.157403,-0.426351 -19.193768,-0.66341 -2.726354,-0.212855 -3.715486,-0.63364 -5.18685,-2.206534 -2.609101,-2.789137 -4.128866,-7.88651 -4.317852,-14.482308 -0.208584,-7.279816 1.39478,-14.37525 4.525,-20.024667 C 32.277078,20.071836 43.856197,10.336527 55.733729,5.8285596 61.44554,3.6607143 68.09318,2.7519632 76.691983,2.9635072 c 9.346499,0.2299384 15.646205,1.3226655 22.185005,3.8481408 20.723112,8.003869 32.597322,25.08785 31.329232,45.074801 -0.44662,7.039229 -0.89772,9.113276 -2.43872,11.212536 -0.33523,0.456675 -1.65066,1.720227 -2.92318,2.807893 l -2.31368,1.977575 -32.433124,-0.02688 C 72.2593,67.842784 54.560987,67.774008 50.767932,67.704735 Z"
     id="path871"
     transform="scale(0.75)" />
  <path
     style="fill:#46edff;fill-opacity:0.645456;stroke-width:0.16618"
     d="m 119.98182,167.03819 c -0.94914,-0.45473 -2.67186,-2.17716 -3.68406,-3.68344 -0.36852,-0.54839 -2.0273,-3.44478 -3.68618,-6.43643 -5.23466,-9.44023 -5.614,-10.23149 -6.40903,-13.36855 -1.21008,-4.77479 -1.2159,-10.42235 -0.0157,-15.19224 0.717,-2.84945 1.29426,-4.15685 3.40469,-7.71099 5.77188,-9.72035 7.64828,-14.4302 7.64828,-19.19752 0,-4.02504 -1.16904,-6.970943 -5.34012,-13.45681 -4.34833,-6.761476 -6.25076,-10.559171 -6.09553,-12.168058 0.0778,-0.805824 0.66597,-1.022101 2.7943,-1.027412 2.08894,-0.0052 2.85301,0.195975 3.99066,1.050786 1.13612,0.853666 2.21435,2.144329 3.90115,4.66974 7.34361,10.99457 9.75247,18.76049 8.23973,26.564124 -0.71889,3.70848 -2.76917,8.55442 -5.77446,13.64824 -5.112,8.66457 -6.53699,13.41565 -5.61299,18.71428 0.57771,3.31283 1.96,6.41332 5.06652,11.36427 3.44326,5.48762 4.56621,7.76728 5.0751,10.30277 0.2397,1.19423 0.25373,1.60323 0.0909,2.65032 -0.47068,3.02757 -1.72543,4.17183 -3.59334,3.27692 z"
     id="path4392"
     transform="scale(0.75)" />
  <path
     style="fill:#46edff;fill-opacity:0.645456;stroke-width:0.16618"
     d="m 90.642077,147.18062 c -0.406339,-0.25859 -1.047613,-0.91292 -1.425053,-1.45408 -0.37744,-0.54116 -1.962472,-3.56387 -3.522293,-6.71713 -1.559821,-3.15326 -3.804046,-7.5145 -4.987167,-9.69164 -3.044461,-5.60233 -4.033663,-8.25942 -4.521147,-12.14422 -0.503305,-4.01088 0.404043,-8.73831 2.669082,-13.90635 0.822999,-1.8778 1.647825,-3.419406 3.942574,-7.368688 3.139426,-5.402978 4.416193,-8.274233 4.936365,-11.101128 0.139167,-0.756315 0.315241,-2.982908 0.391275,-4.947984 0.153856,-3.976394 0.269784,-4.432451 1.229644,-4.837353 0.719104,-0.303343 3.809486,-0.30539 4.675125,-0.0031 2.078013,0.72567 2.992516,3.369699 2.601096,7.520353 -0.504399,5.348701 -2.105148,9.676928 -5.849106,15.815265 -2.928229,4.800925 -5.600991,10.473675 -6.435009,13.657865 -0.447417,1.70819 -0.44929,3.60794 -0.0052,5.30333 0.830429,3.17048 3.320414,8.39559 6.818679,14.30865 2.47969,4.19138 3.153093,5.51511 3.709661,7.29219 0.879592,2.80848 0.972804,5.11086 0.271129,6.69711 -0.447886,1.01252 -0.76347,1.35843 -1.582472,1.73451 -1.003478,0.4608 -2.032767,0.40519 -2.917157,-0.1576 z"
     id="path4394"
     transform="scale(0.75)" />
  <path
     style="fill:#46edff;fill-opacity:0.645456;stroke-width:0.16618"
     d="m 64.893216,139.18637 c -1.930692,-0.58942 -3.484577,-2.33909 -3.488849,-3.92844 -0.0024,-0.88179 -1.498295,-4.58705 -4.322404,-10.70616 -4.080354,-8.84107 -4.772424,-11.26552 -4.939064,-17.30247 -0.181181,-6.56368 0.585999,-10.168696 3.567618,-16.764393 4.350483,-9.623786 5.139301,-11.50847 5.53873,-13.233415 0.299933,-1.295272 0.516229,-1.612673 1.396245,-2.048909 0.716761,-0.355308 1.056093,-0.409867 2.575256,-0.414058 1.477456,-0.0041 1.866642,0.05259 2.501155,0.364156 1.023345,0.502499 1.32591,1.068396 1.32539,2.478931 -7.63e-4,2.069074 -1.046235,5.177318 -4.071736,12.105486 -3.128608,7.164276 -5.067735,13.412072 -5.067735,16.328052 0,2.46549 1.974737,8.99741 4.483622,14.83066 3.416795,7.94418 4.464697,11.1198 4.610683,13.97245 0.09666,1.88884 -0.04577,2.62668 -0.657079,3.40384 -0.679104,0.86334 -2.25309,1.28024 -3.451832,0.91427 z"
     id="path4396"
     transform="scale(0.75)" />
  <path
     style="fill:#46edff;fill-opacity:0.645456;stroke-width:0.16618"
     d="m 32.155794,166.9247 c -1.631198,-0.76134 -2.222728,-1.69746 -2.203327,-3.48686 0.0236,-2.17706 1.140282,-5.29618 4.402576,-12.2973 2.681595,-5.7549 3.538483,-8.22582 4.047618,-11.67168 0.763329,-5.16628 -0.320329,-10.1663 -4.136183,-19.08444 -2.722506,-6.36285 -3.654493,-9.10362 -4.469741,-13.14453 -0.327921,-1.6254 -0.379159,-2.38018 -0.375935,-5.53785 0.0034,-3.340057 0.04275,-3.838586 0.455302,-5.769642 0.869619,-4.070493 2.26877,-7.745698 5.015667,-13.174852 1.979115,-3.911658 3.123015,-5.749138 4.21482,-6.770395 1.079658,-1.009893 1.728261,-1.206731 3.95145,-1.199185 2.735606,0.0093 3.229047,0.443032 2.805726,2.466296 -0.298558,1.426955 -1.068576,3.331909 -3.198536,7.912892 -3.221442,6.92847 -4.083728,9.186936 -4.885474,12.795845 -0.513397,2.310961 -0.557989,6.936211 -0.08812,9.139891 0.677452,3.17724 1.686965,5.65941 4.377832,10.76412 3.3197,6.29765 3.765445,8.40994 3.777735,17.9019 0.01221,9.43542 -0.257629,10.5669 -4.795507,20.10775 -2.550469,5.36235 -3.64731,7.9676 -3.823396,9.08149 -0.203366,1.28645 -1.436212,2.14159 -3.24453,2.25052 -0.846497,0.051 -1.241942,-0.0104 -1.827978,-0.28397 z"
     id="path4398"
     transform="scale(0.75)" />
</svg>
